<svg viewBox="0 0 32 32" xmlns="http://www.w3.org/2000/svg"><path d="m3 11h26" style="fill:none;stroke:#000;stroke-width:2;stroke-linecap:round;stroke-linejoin:round;stroke-miterlimit:10"/><path d="m7 9c-.3 0-.5-.1-.7-.3s-.3-.4-.3-.7.1-.5.3-.7c0 0 .1-.1.1-.1.1 0 .1-.1.2-.1.1-.1.1-.1.2-.1h.4c.1 0 .1 0 .2.1.1 0 .1.1.2.1 0 0 .1.1.1.1.1.1.2.2.2.3.1.1.1.3.1.4s0 .3-.1.4c0 .1-.1.2-.2.3-.2.2-.4.3-.7.3z"/><path d="m10 9c-.3 0-.5-.1-.7-.3s-.3-.4-.3-.7c0-.1 0-.3.1-.4s.1-.2.2-.3.2-.2.3-.2c.4-.2.8-.1 1.1.2.1.1.2.2.2.3.1.1.1.3.1.4 0 .3-.1.5-.3.7s-.4.3-.7.3z"/><path d="m13 9c-.1 0-.3 0-.4-.1s-.2-.1-.3-.2-.2-.2-.2-.3c-.1-.1-.1-.3-.1-.4s0-.3.1-.4.1-.2.2-.3c.4-.4 1-.4 1.4 0 .1.1.2.2.2.3.1.1.1.3.1.4s0 .3-.1.4-.1.2-.2.3c-.2.2-.4.3-.7.3z"/><g style="fill:none;stroke:#000;stroke-width:2;stroke-linecap:round;stroke-linejoin:round;stroke-miterlimit:10"><path d="m27 5h-22c-1.1 0-2 .9-2 2v18c0 1.1.9 2 2 2h22c1.1 0 2-.9 2-2v-18c0-1.1-.9-2-2-2z"/><path d="m11 16-3 3 3 3"/><path d="m21 16 3 3-3 3"/><path d="m18 15-4 8"/></g></svg>