
        <svg xmlns="http://www.w3.org/2000/svg" xmlns:xlink="http://www.w3.org/1999/xlink" version="1.1" width="3128.122998078155" 
        height="962.2037155669443" viewBox="0 0 3128.122998078155 962.2037155669443">
			
			<g transform="scale(6.406149903907751) translate(10, 10)">
				<defs id="SvgjsDefs1209"><linearGradient id="SvgjsLinearGradient1220"><stop id="SvgjsStop1221" stop-color="#00ddff" offset="0"></stop><stop id="SvgjsStop1222" stop-color="#ff00d4" offset="1"></stop></linearGradient><linearGradient id="SvgjsLinearGradient1223"><stop id="SvgjsStop1224" stop-color="#00ddff" offset="0"></stop><stop id="SvgjsStop1225" stop-color="#ff00d4" offset="1"></stop></linearGradient></defs><g id="SvgjsG1210" featureKey="rootContainer" transform="matrix(1.05,0,0,1.05,0,0)" fill="#262833"><rect xmlns="http://www.w3.org/2000/svg" width="446" height="124" rx="10" ry="10"></rect></g><g id="SvgjsG1211" featureKey="uwAHB0-0" transform="matrix(0.5564728733407375,0,0,0.5564728733407375,75.49917383023006,95.26215342070806)" fill="url(#SvgjsLinearGradient1220)"><path d="M4.86 16.87 q1.42 0.57 2.6 0.57 q1.24 0 1.97 -0.48 t0.73 -1.14 q0 -0.54 -0.43 -0.88 t-1.09 -0.51 t-1.74 -0.37 q-1.44 -0.24 -2.64 -0.62 t-2.18 -1.32 t-0.98 -2.54 q0 -2.36 1.73 -3.39 t4.07 -1.03 q1.8 0 3.13 0.49 t2.65 1.47 l-1.76 2.4 q-0.98 -0.7 -2.04 -1.1 t-2.1 -0.4 q-0.92 0 -1.72 0.33 t-0.8 1.11 q0 0.48 0.41 0.77 t0.9 0.42 t1.59 0.37 l0.72 0.14 q1.66 0.32 2.75 0.71 t1.89 1.31 t0.8 2.56 q0 2.22 -1.57 3.38 t-4.25 1.16 q-3.92 0 -6.6 -2.28 l1.68 -2.42 q0.86 0.72 2.28 1.29 z M39.52 19.26 q-1.8 -1.02 -2.86 -2.77 t-1.06 -3.81 q0 -2.04 1.06 -3.79 t2.86 -2.77 t3.94 -1.02 t3.96 1.02 t2.88 2.77 t1.06 3.79 q0 2.06 -1.06 3.81 t-2.88 2.77 t-3.96 1.02 t-3.94 -1.02 z M41.1 8.63 q-1.08 0.65 -1.72 1.73 t-0.64 2.32 t0.64 2.33 t1.72 1.75 t2.36 0.66 t2.37 -0.66 t1.72 -1.75 t0.63 -2.33 t-0.63 -2.32 t-1.72 -1.73 t-2.37 -0.65 t-2.36 0.65 z M77.74000000000001 11.34 l6.98 0 l0 2.74 l-6.98 0 l0 5.92 l-3.18 0 l0 -14.62 l11.08 0 l0 2.74 l-7.9 0 l0 3.22 z M115.34 8.12 l0 11.88 l-3.18 0 l0 -11.88 l-4.26 0 l0 -2.74 l11.68 0 l0 2.74 l-4.24 0 z M154.98000000000002 20.54 l-4.18 -8.68 l-4.22 8.68 l-5.84 -15.14 l3.4 0 l2.82 7.58 l3.84 -7.96 l3.84 7.96 l2.88 -7.58 l3.36 0 z M187.70000000000002 4.92 l8.02 15.08 l-3.46 0 l-1.16 -2.24 l-6.82 0 l-1.12 2.24 l-3.48 0 z M189.58 15.059999999999999 l-1.88 -3.82 l-1.86 3.82 l3.74 0 z M217.22000000000003 20 l0 -14.62 l6.5 0 q1.56 0 2.76 0.64 t1.86 1.8 t0.66 2.64 q0 1.58 -0.8 2.82 t-2.18 1.82 q1.42 1.8 3.78 4.9 l-3.78 0 q-1.28 -1.6 -3.5 -4.56 l-2.16 0 l0 4.56 l-3.14 0 z M223.72000000000003 12.7 q0.82 0 1.48 -0.59 t0.66 -1.65 q0 -0.86 -0.46 -1.6 t-1.68 -0.74 l-3.36 0 l0 4.58 l3.36 0 z M255.58 11.38 l7 0 l0 2.76 l-7 0 l0 3.12 l7.92 0 l0 2.74 l-11.08 0 l0 -14.62 l11.08 0 l0 2.74 l-7.92 0 l0 3.26 z M316.86 11.38 l7 0 l0 2.76 l-7 0 l0 3.12 l7.92 0 l0 2.74 l-11.08 0 l0 -14.62 l11.08 0 l0 2.74 l-7.92 0 l0 3.26 z M351.5 20 l-3.14 0 l0 -15.08 l10.08 8.92 l0 -8.44 l3.16 0 l0 15.06 l-10.1 -8.78 l0 8.32 z M400.3 13.04 q0 0.24 -0.04 0.84 q-0.16 1.84 -1.23 3.3 t-2.76 2.28 t-3.65 0.82 q-2.14 0 -3.95 -1.02 t-2.87 -2.76 t-1.06 -3.8 q0 -2.04 1.06 -3.79 t2.87 -2.77 t3.95 -1.02 q2.02 0 3.77 0.95 t2.85 2.57 l-2.72 1.58 q-0.72 -0.98 -1.74 -1.6 t-2.16 -0.62 q-1.28 0 -2.37 0.65 t-1.73 1.73 t-0.64 2.32 t0.64 2.33 t1.73 1.74 t2.37 0.65 q0.92 0 1.82 -0.37 t1.56 -1.01 t0.88 -1.4 l-5.46 0 l0 -2.78 l8.84 0 q0.04 0.8 0.04 1.18 z M423.78000000000003 20 l0 -14.62 l3.16 0 l0 14.62 l-3.16 0 z M454.28000000000003 20 l-3.14 0 l0 -15.08 l10.08 8.92 l0 -8.44 l3.16 0 l0 15.06 l-10.1 -8.78 l0 8.32 z M491.48 11.38 l7 0 l0 2.76 l-7 0 l0 3.12 l7.92 0 l0 2.74 l-11.08 0 l0 -14.62 l11.08 0 l0 2.74 l-7.92 0 l0 3.26 z M526.1200000000001 11.38 l7 0 l0 2.76 l-7 0 l0 3.12 l7.92 0 l0 2.74 l-11.08 0 l0 -14.62 l11.08 0 l0 2.74 l-7.92 0 l0 3.26 z M557.62 20 l0 -14.62 l6.5 0 q1.56 0 2.76 0.64 t1.86 1.8 t0.66 2.64 q0 1.58 -0.8 2.82 t-2.18 1.82 q1.42 1.8 3.78 4.9 l-3.78 0 q-1.28 -1.6 -3.5 -4.56 l-2.16 0 l0 4.56 l-3.14 0 z M564.12 12.7 q0.82 0 1.48 -0.59 t0.66 -1.65 q0 -0.86 -0.46 -1.6 t-1.68 -0.74 l-3.36 0 l0 4.58 l3.36 0 z"></path></g><g id="SvgjsG1212" featureKey="nameLeftFeature-0" transform="matrix(2.343750197906064,0,0,2.343750197906064,27.34375150175778,26.46874437713948)" fill="#ffffff"><path d="M16.88 20 l-3.18 0 l0 -6.98 l-4.48 5.2 l-4.48 -5.2 l0 6.98 l-3.18 0 l0 -15.08 l7.66 8.64 l7.66 -8.64 l0 15.08 z M23.34 19.5 q-1.48 -0.76 -2.29 -2.16 t-0.81 -3.26 l0 -8.68 l3.16 0 l0 8.68 q0 1.28 0.55 2.05 t1.32 1.09 t1.53 0.32 q0.74 0 1.51 -0.32 t1.31 -1.09 t0.54 -2.05 l0 -8.68 l3.16 0 l0 8.68 q0 1.86 -0.8 3.26 t-2.28 2.16 t-3.44 0.76 q-1.98 0 -3.46 -0.76 z M51.379999999999995 13.04 q0 0.24 -0.04 0.84 q-0.16 1.84 -1.23 3.3 t-2.76 2.28 t-3.65 0.82 q-2.14 0 -3.95 -1.02 t-2.87 -2.76 t-1.06 -3.8 q0 -2.04 1.06 -3.79 t2.87 -2.77 t3.95 -1.02 q2.02 0 3.77 0.95 t2.85 2.57 l-2.72 1.58 q-0.72 -0.98 -1.74 -1.6 t-2.16 -0.62 q-1.28 0 -2.37 0.65 t-1.73 1.73 t-0.64 2.32 t0.64 2.33 t1.73 1.74 t2.37 0.65 q0.92 0 1.82 -0.37 t1.56 -1.01 t0.88 -1.4 l-5.46 0 l0 -2.78 l8.84 0 q0.04 0.8 0.04 1.18 z M54.22 20 l0 -14.62 l3.16 0 l0 14.62 l-3.16 0 z"></path></g><g id="SvgjsG1213" featureKey="inlineSymbolFeature-0" transform="matrix(0.19497282788348386,0,0,0.19497282788348386,178.87751028044798,5.487342818231102)" fill="url(#SvgjsLinearGradient1223)"><g xmlns="http://www.w3.org/2000/svg"><g><path d="M56.232,255.478l128.059-77.912c1.798-0.855,3.031-2.739,3.031-4.901v-37.66c-0.016-0.949-0.249-1.93-0.766-2.802    c-1.483-2.552-4.717-3.377-7.203-1.851L18.842,230.913c-1.671,0.903-2.827,2.716-2.827,4.824v38.965    c0.03,1.83,0.907,3.62,2.53,4.644l160.449,101.985c0.861,0.663,1.922,1.023,3.078,1.023c2.907,0,5.25-2.438,5.25-5.42v-37.616    c-0.032-1.861-0.937-3.676-2.594-4.668L56.232,255.478z M176.807,169.567L48.498,247.649l-1.031,0.825l-1.28,1.285    c-0.407,0.436-0.718,0.917-0.985,1.407c-1.061,2.103-1.296,4.444-0.764,6.545l0.062,0.273c0.578,2.162,1.984,4.112,3.969,5.295    l128.339,79.093v24.858L26.53,271.697v-32.941l150.277-94.134V169.567z M196.807,415.278l87.17-321.061    c0.469-2.49,2.607-4.396,5.172-4.396h23.061l1.404,0.226c2.797,0.793,4.406,3.796,3.628,6.676l-87.186,321.048    c-0.468,2.534-2.608,4.404-5.172,4.404h-23.029l-1.406-0.191C197.667,421.161,196.042,418.18,196.807,415.278z M293.133,100.706    l-84.358,310.607h12.156l84.356-310.607H293.133z M455.767,255.478l-128.072-77.912c-1.766-0.855-3.018-2.739-3.018-4.901v-37.66    c0.032-0.949,0.265-1.93,0.782-2.802c1.469-2.552,4.719-3.377,7.203-1.851l160.511,100.561c1.657,0.903,2.813,2.716,2.813,4.824    v38.965c-0.017,1.83-0.907,3.62-2.517,4.644L332.99,381.331c-0.846,0.663-1.922,1.023-3.049,1.023c-2.89,0-5.265-2.438-5.265-5.42    v-37.616c0.048-1.861,0.971-3.676,2.596-4.668L455.767,255.478z M335.193,169.567l128.322,78.082l1.047,0.825l1.236,1.285    c0.438,0.436,0.782,0.917,0.982,1.407c1.111,2.103,1.328,4.444,0.814,6.545l-0.08,0.273c-0.609,2.162-1.966,4.112-3.984,5.295    l-128.338,79.093v24.858l150.291-95.533v-32.941l-150.291-94.134V169.567z"></path></g></g></g><g id="SvgjsG1214" featureKey="nameRightFeature-0" transform="matrix(2.3166021801214516,0,0,2.3166021801214516,278.48648654619683,26.60231709705974)" fill="#ffffff"><path d="M10.719999999999999 20 l-3.16 0 l0 -14.62 l3.16 0 l0 6.1 l5.7 -6.1 l3.92 0 l-6.02 6.2 l6.28 8.42 l-3.88 0 l-4.58 -6.22 l-1.42 1.48 l0 4.74 z M35.72 20 l-3.14 0 l0 -5.68 l-6.86 0 l0 5.68 l-3.14 0 l0 -14.62 l3.14 0 l0 6.2 l6.86 0 l0 -6.2 l3.14 0 l0 14.62 z M45.42 4.92 l8.02 15.08 l-3.46 0 l-1.16 -2.24 l-6.82 0 l-1.12 2.24 l-3.48 0 z M47.3 15.059999999999999 l-1.88 -3.82 l-1.86 3.82 l3.74 0 z M58.260000000000005 20 l-3.14 0 l0 -15.08 l10.08 8.92 l0 -8.44 l3.16 0 l0 15.06 l-10.1 -8.78 l0 8.32 z"></path></g>
			</g>
		</svg>
	