<svg height="800" viewBox="0 0 512 512" width="800" xmlns="http://www.w3.org/2000/svg"><path d="m128 0c70.692448 0 128 57.307552 128 128 0 12.931179-1.917529 25.414494-5.483754 37.181113l133.483754 133.485554c23.564149 23.564149 23.564149 61.769184 0 85.333333s-61.769184 23.564149-85.333333 0l-133.485554-133.483754c-11.766619 3.566225-24.249934 5.483754-37.181113 5.483754-70.692448 0-128-57.307552-128-128 0-13.642091 2.13416363-26.785722 6.08683609-39.115237l60.54794481 60.44857 60.0142191-19.987333 2.68-2.68 20.004333-59.9579414-60.6187601-60.56652979c12.3787271-3.98767476 25.5805471-6.14152881 39.2854271-6.14152881z" fill-rule="evenodd" transform="translate(42.666667 42.666667)"/></svg>